<?xml version="1.0"?>
<!DOCTYPE svg PUBLIC "-//W3C//DTD SVG 1.1//EN" "http://www.w3.org/Graphics/SVG/1.1/DTD/svg11.dtd">
<svg width="430.8932126127094mm" height="233.62257142814727mm" viewBox="0 0 430.8932126127094 233.62257142814727" xmlns="http://www.w3.org/2000/svg" version="1.1">
<g id="Part__Part2DObjectPython" transform="translate(34.224443,199.616862) scale(1,-1)">
<circle cx="0.0" cy="0.0" r="10.0" stroke="#f1f3f5" stroke-width="0.7 px" style="stroke-width:0.7;stroke-miterlimit:4;stroke-dasharray:none;stroke-linecap:square;fill:none"/>
<circle cx="0.0" cy="0.0" r="20.0" stroke="#f1f3f5" stroke-width="0.7 px" style="stroke-width:0.7;stroke-miterlimit:4;stroke-dasharray:none;stroke-linecap:square;fill:none"/>
<circle cx="0.0" cy="0.0" r="30.0" stroke="#f1f3f5" stroke-width="0.7 px" style="stroke-width:0.7;stroke-miterlimit:4;stroke-dasharray:none;stroke-linecap:square;fill:none"/>
<path id="Part__Part2DObjectPython_w0003"  d="M 166.03447 117.30398599999998 C 154.36100000000005 147.317 138.7785 152.1645 130.06391666666667 157.58941666666666 C 121.34933333333333 163.01433333333333 119.50266666666667 169.01666666666665 121.465 175.4228333333333 C 123.42733333333334 181.829 129.19866666666667 188.639 137.163 192.27483333333333 C 145.12733333333333 195.91066666666666 155.28466666666668 196.37233333333333 169.078 194.41016666666667 C 182.87133333333333 192.44799999999998 200.30066666666664 188.06199999999998 211.4393333333333 180.38616666666667 C 222.57799999999997 172.71033333333332 227.426 161.74466666666666 229.85 152.39516666666665 C 232.274 143.04566666666665 232.274 135.31233333333333 232.04316666666668 128.4445 C 231.81233333333336 121.57666666666665 231.35066666666665 115.5743333333333 228.23416666666665 107.95616666666662 C 225.11766666666668 100.33799999999997 219.34633333333335 91.10399999999997 208.32316666666668 88.13182499999998 C 197.3 85.15964999999998 181.025 88.4493 166.03447 117.30398599999998 " stroke="#f1f3f5" stroke-width="0.7 px" style="stroke-width:0.7;stroke-miterlimit:4;stroke-dasharray:none;stroke-linecap:square;fill:none;fill-opacity:1;fill-rule: evenodd"/>
<path id="Part__Part2DObjectPython_w0004"  d="M 0.0 0.0 L 193.468109 124.674408 L 372.14511105506176 6.766405011943277 L 158.582916 169.921539 L 193.468109 124.674408 " stroke="#f1f3f5" stroke-width="0.7 px" style="stroke-width:0.7;stroke-miterlimit:4;stroke-dasharray:none;stroke-linecap:square;fill:none;fill-opacity:1;fill-rule: evenodd"/>
<path id="Part__Part2DObjectPython_w0005"  d="M 365.3787060431185 0.0 L 378.91151606700504 13.532810023886555 L 392.4443260908916 0.0 L 378.91151606700504 -13.532810023886555 L 365.3787060431185 0.0 " stroke="#f1f3f5" stroke-width="0.7 px" style="stroke-width:0.7;stroke-miterlimit:4;stroke-dasharray:none;stroke-linecap:square;fill:none;fill-opacity:1;fill-rule: evenodd"/>
<title>b'Part__Part2DObjectPython'</title>
</g>
</svg>